<svg xmlns="http://www.w3.org/2000/svg" xmlns:xlink="http://www.w3.org/1999/xlink" width="40.941" height="24" viewBox="0 0 40.941 24"><defs><path id="a" d="M0 0h40.941v24H0z"/></defs><clipPath id="b"><use xlink:href="#a" overflow="visible"/></clipPath><path fill="#019FCB" clip-path="url(#b)" d="M1.116 6.93C2.555 8.404 17.69 22.82 17.69 22.82A3.877 3.877 0 0 0 20.47 24a3.876 3.876 0 0 0 2.781-1.18S38.386 8.404 39.824 6.929c1.439-1.475 1.536-4.128 0-5.702-1.535-1.573-3.678-1.699-5.561.001L20.47 14.452 6.678 1.229c-1.884-1.7-4.027-1.574-5.562-.001-1.537 1.574-1.439 4.227 0 5.702"/></svg>