<svg id="Capa_1" data-name="Capa 1" xmlns="http://www.w3.org/2000/svg" viewBox="0 0 983.56 375.22"><defs><style>.cls-1{fill:#1857a0;}.cls-2{fill:#f79610;}</style></defs><path class="cls-1" d="M66.18,406.89c-3.61,1.88-10.36,2.75-19.73,1.71-20.32-2.26-36.9-13-37-39.24C9.31,346,24.64,327.68,48.64,327.68a67.09,67.09,0,0,1,17.65,2.23l-.62,7.34a50.38,50.38,0,0,0-16.25-2.71c-18.16,0-31.65,13.9-31.65,34.92,0,19.58,12.11,31.44,30.85,31.44,6.14,0,13.45-1.16,17.51-3.17Z" transform="translate(-9.42 -33.83)"/><path class="cls-1" d="M80.8,321.29h7.71v85.79H80.8Z" transform="translate(-9.42 -33.83)"/><path class="cls-1" d="M155.83,391.88c0,5.82-.15,10.46.13,14.85H148l-.18-8.88h-.29c-2.68,4.46-10.27,10.48-20.68,10.48-9.1,0-20-4.87-20-24.32V350.49h8.36v32.24c0,10.57,3.85,19.09,15,18.92,7.08-.11,13.64-5.11,15.59-9.64a22.24,22.24,0,0,0,1.81-7.36l.58-34.16h7.7Z" transform="translate(-9.42 -33.83)"/><path class="cls-1" d="M174.41,407.25c.28-3.81,0-12.27,0-17.2V321.64h8v38.25h.23c3.54-6.24,12-10.34,19.68-10.22,13.79.21,24.7,9.75,25.11,26.51.49,19.9-13.2,32.15-25.58,32.15-8,0-15.42-5.34-19.44-13.11h-.27l-.32,12Zm8.24-24.07a15.65,15.65,0,0,0,.42,3.65c1.89,7,9.76,15.28,17,15.28,10.62,0,18.83-8.81,19.1-24.06.23-13.07-8.14-22.51-18.94-22.51-6.84,0-15,5.85-17,13.47a16.32,16.32,0,0,0-.58,4.2Z" transform="translate(-9.42 -33.83)"/><path class="cls-1" d="M425.7,407.25c.28-3.81,0-12.27,0-17.2V321.64h8v38.25h.23c3.53-6.24,12-10.34,19.68-10.22,13.79.21,24.7,9.75,25.11,26.51.49,19.9-13.2,32.15-25.58,32.15-8,0-15.42-5.34-19.45-13.11h-.27l-.31,12Zm8.24-24.07a15.65,15.65,0,0,0,.42,3.65c1.89,7,9.75,15.28,17,15.28,10.62,0,18.82-8.81,19.1-24.06.23-13.07-8.14-22.51-18.94-22.51-6.84,0-15,5.85-17,13.47a16.32,16.32,0,0,0-.58,4.2Z" transform="translate(-9.42 -33.83)"/><path class="cls-1" d="M283.78,335.46H260.22v-6h55.12v6H291.51l.35,71.74h-8.08Z" transform="translate(-9.42 -33.83)"/><path class="cls-1" d="M370.7,378.06c0,21.16-14.54,30.42-28.15,30.42-15.35,0-27.21-11.29-27.21-29.44,0-19.12,12.45-30.3,28.11-30.3C359.72,348.74,370.7,360.65,370.7,378.06Zm-46.9,2.45c1,14.83,9.17,21.31,19.22,21.31,9.87,0,19.5-9,19.5-23.41,0-9.66-6.07-22.78-19.5-22.43C330.93,356.29,322.9,367,323.8,380.51Z" transform="translate(-9.42 -33.83)"/><path class="cls-1" d="M385.61,368.07c0-6.55-.17-12.13-.47-17.28h7.93l.38,10.89h.49c2.59-7.45,9.44-12.42,16.18-12.42h4.15v6.28a32.24,32.24,0,0,0-5.1-.11c-7.93.77-14.1,8.94-15.47,16.49a26.85,26.85,0,0,0-.41,4.72V407.2h-7.68Z" transform="translate(-9.42 -33.83)"/><path class="cls-1" d="M497.47,380.43c.2,14,10.78,20.89,20.92,20.89a37.86,37.86,0,0,0,15.85-3.48l.39,6.86c-3.53,1.65-8.35,3.63-17.16,3.63-17.05,0-27.31-11.68-27.31-28.81,0-17.3,9.91-30.8,26.11-30.8,18.11,0,22.84,16.34,22.84,26.84a26.53,26.53,0,0,1-.34,4.87Zm33.2-6.92c.1-6.53-1.66-18.3-15-18.3-11.41,0-17,10.52-17.83,17.75Z" transform="translate(-9.42 -33.83)"/><path class="cls-1" d="M549.61,397.6c3,1.9,10,3.87,15,3.87,7.37,0,11.35-4.89,12-9.49.72-5.23-4.35-10.3-12.51-12.37-10.34-2.62-13-8.59-13-15.25,0-8.93,6.21-16.12,18.14-16.12,5.65,0,9.82.89,12.9,2.78l-.3,5.54a39.86,39.86,0,0,0-13.59-1.47c-5.93.48-9.94,4.25-9.94,8.44,0,4.59,3.11,7.64,10.38,10.46,9.57,3.56,16.14,7.87,16.16,16.16,0,9.84-8.28,17.59-21.39,17.59-6.08,0-10.27-.79-14.18-3.09Z" transform="translate(-9.42 -33.83)"/><path class="cls-1" d="M180.64,254c-3.65-8.23-7.41-16.39-11.08-24.6-4.07-9.11-8.09-18.25-12.3-27.75l3.13-1.69c8.22-4.41,14.23-10.51,17.39-19.63A42.93,42.93,0,0,0,178,153c-1.66-5.38-4.48-11.08-8.43-14.94-8.64-8.41-20.15-11.44-31.85-11.37-15.82.1-31.63,1.54-47.44,2.41-2.94.17-3.43,2.14-3.42,4.59q0,60.16,0,120.34c0,4.06,2.11,5.82,6,5.77,3.37,0,6.74,0,10.12,0,5.66,0,7-1.32,7-7,0-13.61.15-27.23-.08-40.84-.07-4,1.34-5.21,5.08-4.85,6,.58,12.14.84,18.18,1.52a4.8,4.8,0,0,1,3,2.49c2.48,4.92,4.79,9.93,7,15,4.67,10.44,9.2,20.95,14,31.33a5,5,0,0,0,3.64,2.25c5.42.24,10.85.19,16.27.07A3.87,3.87,0,0,0,180.64,254ZM126.43,148a102.85,102.85,0,0,1,17.29,1.36c7.55,1.2,12.34,9.34,13.21,16.09,1.17,9.05-3.36,16.09-9.83,18.87-9.28,4-18,3.28-28.68,2.86-.57,0-1.15-.16-1.73-.2-6.72-.49-6.72-.49-6.72-7.44,0-8.93.14-17.86-.06-26.79-.08-3.53.85-5.09,4.65-4.81S122.47,148,126.43,148Z" transform="translate(-9.42 -33.83)"/><path class="cls-1" d="M567.52,259.6c-8.84,1.39-13.61-2.84-16.24-10-.84-2.29-1.29-4.73-1.92-7.09-3.07-11.53-6.21-23.05-9.21-34.6-3.48-13.37-6.94-26.74-10-40.21-.25-1.08,2.45-3.88,4.07-4.13,3.85-.62,7.88-.32,11.84-.17,2.59.1,4.53,1,5.3,4.07,2.37,9.34,5.08,18.59,7.58,27.9,2.84,10.57,5.61,21.16,8.39,31.74.76,2.93,1.39,5.89,2.24,8.79a9.3,9.3,0,0,0,1.56,2.29c.65-.8,1.63-1.5,1.88-2.41q5.25-18.94,10.32-37.94c2.72-10.15,5.43-20.31,8-30.5.76-3,2.81-3.85,5.39-4,3.52-.14,7-.08,10.56,0,4.06.06,5.64,1.75,4.72,5.71-1.86,8-4.06,15.91-6,23.87s-3.8,16.26-5.92,24.33c-3.15,12-6.45,23.9-9.78,35.82-1.82,6.52-3.83,13-5.78,19.46-3.75,14.7-18.13,23.61-35.22,19.08-3.69-1.11-7.71-1.16-11.6-1.51-5.52-.5-6.81-1.79-6.83-7.29,0-1.61,0-3.22,0-4.83.19-4.65,2.83-5.55,7.33-5a100.39,100.39,0,0,0,20.87.32c4.18-.35,5.44-4.86,7-8.24A35.72,35.72,0,0,0,567.52,259.6Z" transform="translate(-9.42 -33.83)"/><path class="cls-1" d="M441.55,222.2c0,11.27,0,22.55,0,33.82,0,4.58-2.05,6.13-6.4,5-1.53-.42-3.28-.68-4.46-1.61-6.82-5.3-13.56-2.28-20.56-.43-9.3,2.45-18.67,3.69-28.39,1.21s-14.55-9.18-17.05-18a36.14,36.14,0,0,1,2.19-26.58c3.13-6.46,8.69-9.62,14.73-11.16,7.35-1.87,15.13-2,22.73-2.91,4.3-.49,8.63-.83,12.91-1.46a3.38,3.38,0,0,0,2.43-1.87c1.59-8.78-2.38-16.37-11.52-16-11,.47-22.06,1.37-33.11,1.76-1.15,0-2.9-.27-3.4-.9-3.58-4.49-2-9.83-1.65-14.76.23-3.32,3.53-3.22,6.47-3.73a189.1,189.1,0,0,1,27.1-3,72.52,72.52,0,0,1,20.64,2.32c12.68,3.53,16.45,13.94,17.19,24.91S441.55,211.07,441.55,222.2ZM419.88,228h0c0-2.92.3-5.88-.15-8.73a4.32,4.32,0,0,0-3.19-2.68c-5.17.1-10.33.71-15.49,1.09-12.08.87-15.94,4.28-15.21,15,.42,6.25,4.69,11.29,10.9,10.79s12.43-2,18.65-3.05c3.23-.29,4.86-3.1,4.56-6.75C419.84,231.56,419.88,229.91,419.88,228Z" transform="translate(-9.42 -33.83)"/><path class="cls-1" d="M281.78,211.19a82,82,0,0,1-6,31.33,30,30,0,0,1-20.32,18,48,48,0,0,1-16.12,1.57c-7.93-.74-16.06-.82-23.64-4.38A29.83,29.83,0,0,1,200.77,243a69.28,69.28,0,0,1-5.23-20.39,112.14,112.14,0,0,1-.06-23.67c1.45-14,6.62-26.22,20-33.45a40.24,40.24,0,0,1,14-4.21,58.85,58.85,0,0,1,8.95-.43c11.57,1,21.75,2.12,30.71,10.43,5.2,4.83,8.29,11.5,9.77,18.52C280.41,197,281.78,203.1,281.78,211.19Zm-23.14.34c0-3.07.09-6.14,0-9.2-.34-10-4.42-18.43-15.1-20.94-8.54-2-19.88,0-23.38,9.38a52.08,52.08,0,0,0-3.13,16c-.26,6.6.56,13.28,1.26,19.89.61,5.79,3.23,10.91,8.84,13a47.92,47.92,0,0,0,14.32,2.45c8.34-.69,14.84-6,15.87-13.75A125.16,125.16,0,0,0,258.64,211.53Z" transform="translate(-9.42 -33.83)"/><path class="cls-1" d="M303.57,211.25c-.28-8.23-.12-15.5.06-23.25.08-3.35-.93-4.64-4.46-4.57-7.4.13-7.49-.14-7.49-7.24,0-2.35,0-4.69,0-7,0-4.79,1-5.72,5.95-5.85,5.92-.15,5.86-.16,6-6.07.07-3.62-.88-8.16.92-10.6,1.66-2.25,6.38-2.26,9.76-3.22,1.66-.47,3.33-.88,5-1.26,4.25-1,5.74.14,5.85,4.52.1,3.95.24,7.92,0,11.85s1.39,5.05,5.13,4.85c5.12-.28,10.25,0,15.38-.08,4-.06,6,1.81,6,5.79,0,2.78.05,5.56,0,8.33-.09,4.46-1.71,6.06-6.07,6.08-5.56,0-11.13.08-16.69,0-2.59,0-3.71.86-3.69,3.54.06,14.19-.05,28.38.1,42.57a15,15,0,0,0,1.74,7.48,9,9,0,0,0,5.73,3.73c4.31.58,8.76.21,13.16.18,3.79,0,5.68,1.85,5.72,5.61,0,2.19,0,4.39,0,6.58,0,6.05-1,7.15-7.2,7.93-3,.37-6,1.09-9,1.19-7.71.26-15.27-.33-22-4.73-5.47-3.56-7.71-9-8.32-15C304,232.2,304,222.53,303.57,211.25Z" transform="translate(-9.42 -33.83)"/><path class="cls-1" d="M465.94,211.76q0-20.83,0-41.68c0-5.2,1.56-6.73,6.77-6.76,3.22,0,6.45-.09,9.67,0s5.57,1.33,5.29,5.27c-.09,1.17.63,2.4,1,3.6,1.13-.47,2.28-.87,3.36-1.41,6.7-3.31,12.91-7.76,21-7.57,3.72.08,4.84,2.08,5.15,5.08a59.65,59.65,0,0,1,0,6.13c0,6.86-1.39,8.09-8.1,9.17-8,1.29-14.84,5.41-21.1,10.33-1.06.83-1.29,3.15-1.3,4.78-.09,18.43-.05,36.86-.06,55.28,0,5.55-.19,5.72-5.66,5.75-3.22,0-6.44,0-9.67,0-4.74-.06-6.31-1.6-6.32-6.3C465.92,239.55,465.94,225.66,465.94,211.76Z" transform="translate(-9.42 -33.83)"/><path class="cls-2" d="M661.25,157.09c.43-1.07,1-2.09,1.52-3.14,2-3,6.67-2.65,10-2.17,4.49.41,9,.7,13.48,1.27a4.51,4.51,0,0,0,4.54-2.36c2.27-4.26,2.71-7.7-2.22-10.61-2.8-1.64-5.11-4.11-7.64-6.21-7.14-8.39-7.14-8.39-1.73-18,0,0,.88-1.11.88-1.12a3.26,3.26,0,0,1,3-1.49c6.81-.1,12.23,2.88,18.56,5.29,4.35,1.67,7.15.75,9.73-3a5.42,5.42,0,0,0,.07-6.24c-3.53-5-7.13-9.84-9.75-15.36-2.25-4.92,4.3-14.49,10.53-13.34a7.8,7.8,0,0,1,1.07.33c5.62,2.22,9.7,5.74,14.68,9.14,1.32.9,3.84,2.17,6,.42,1.84-1.45,3.15-2.07,4.14-4.44.69-1.66-.53-4-1.6-7.14-.31-.91-1-2.94-1.5-4.43-.33-1-.64-2.06-.9-3.1-.45-1.81-1-3.49-1.38-5.36l-.09-.76,0-.86a7.15,7.15,0,0,1,2.59-5.64,31.83,31.83,0,0,1,6.54-3.6,5.89,5.89,0,0,1,4-.65,5.59,5.59,0,0,1,.79.25,6.12,6.12,0,0,1,2.17,1.46l2.94,3c.61.62,1.2,1.26,1.76,1.92q4.22,5,8.44,10c.86,1,3,1.5,4.76,1.12,6.57-1.43,6.67-5.08,6.1-9.41-.08-.58-.12-1.17-.19-1.75-.17-1.33-.41-2.64-.7-3.94-.73-3.32-1.2-11-.11-12.53.11-.15.56-1.1.67-1.23a13,13,0,0,1,3.27-2.71c5.83-3.6,13.6-3.16,17.09,3,0,0,3.67,9.13,4.1,10.25,1.27,2.55,3.44,7.17,6.48,8.05,2.27.65,3,.8,4.6,0,2.56-1.17,2.78-6.12,2.81-9.33a59.2,59.2,0,0,1,.9-10c.69-5.36,4.52-9.12,9.91-8.92h4.42c3.66.13,6.76,2.67,7.35,5.5,1,4.86,1.71,8.32,3.2,14.67,1.16,6,4.6,7.66,7,7.85,5.42.41,5.41-3,6.76-5.93l3.07-6.85a30.29,30.29,0,0,1,3.94-6.58c4-5,7.22-5,15-1.29h0a19.17,19.17,0,0,1,2.72,1.84c3.35,3.06,1.57,8.3.89,13.21l-1,7.24a7.19,7.19,0,0,0,4.25,7.55l1.46.63a4,4,0,0,0,4.59-1.05c2.47-2.89,5-5.64,7.56-8.21,8.44-9,10.42-9.2,20.86-2.52,0,0,3,1.85,2,5.08-.7,2.27-2.07,5.57-2.74,7.4-.3.83-.59,1.73-.91,2.56A89.49,89.49,0,0,0,909,86c-.61,2.41,2.77,4.9,5.33,6.22a2.92,2.92,0,0,0,3.92-.5C923,87.38,926.86,83,932.2,80.6a10.12,10.12,0,0,1,9,.83c4,2.76,8.2,7.47,5.58,12.53-3.26,5.89-6.54,9.29-10.74,16.23a3.23,3.23,0,0,0-.18,3.76c4,7.16,4,7.07,11.53,4.49,2.44-.84,10.86-4.37,13.35-5.07,3.37-1,6.83-1.62,9.48.25a6.49,6.49,0,0,1,1.43,1.48l3.65,5.57c2.62,4.72.35,7.91-1.48,9.77-3.61,3.65-12.85,9-17,12.14a3.22,3.22,0,0,0-1.08,4.37c1.06,2.8,2.13,7.1,4.91,6.67,4-.62,8.1-1.11,12.14-1.69,5.93-.72,13.83-.78,15.7,2.65,4.51,9.67,1.59,13.34-7.34,17.69a28.73,28.73,0,0,1-2.6,1.47,34.91,34.91,0,0,0-5.91,3.26c-2.74,1.91-4.7,4.67-3.83,8.23.71,2.92,1.58,5.85,5.73,6.06,4.61.24,8.88,2.22,13.25,3.63,2.9,1.48,5.75,2.63,5.13,7.05s1.13,9.43-5.12,11c-3.85,1-7.65,2.31-11.56,2.76s-6.45,2.16-7.36,5.53c-1.11,4.13.95,7.39,4.55,9.54,2.41,1.44,4.93,2.69,7.4,4,9,7,9.34,8.79,4,18.09-3.58,3-8,1.55-12,2.19-3.78-.39-7.55-.75-11.32-1.18-2.39-.27-4.33.11-4.76,2.94-.39,2.59-3.72,5,.08,7.83s7.28,6.17,10.9,9.28c5.12,6.67,5.55,10.41,1.82,15.61-2.75,3.83-7.68,4.57-14.38,2.22-1.94-.67-3.91-1.28-5.79-2.08-7.73-3.28-9.62-4-13.49,2.6-.93,1.76.41,4.82,1.3,6,2.63,3.64,5.25,7.6,7.9,11.19,2.16,2.93,2.07,5.07.88,7.61-1.73,3.67-3.35,6.33-7.18,8.17a5.92,5.92,0,0,1-5.82-.48c-4.78-3.16-8.08-4.82-12.69-7.61-1.54-.93-5.6-3-7.38-1.65-2.76,1.83-5.43,4.05-4.86,7a62.4,62.4,0,0,0,3.15,11.28c.85,2.71,1.43,4.84,2.12,7,1.37,4.34-.93,8.24-4,10.33s-6.74,3.54-10.78,1a7.19,7.19,0,0,1-1.46-1.29l-8.26-10.1c-1-1.35-2-2.34-3-3.87-1.92-2.81-5.6-2-8.21-.58-2.14,1.18-3.44,2.63-3.31,4.73.3,4.44.47,8.53.91,12.83.09,2.45.33,4.13.44,6.55.08,2-1.93,5.37-4.85,6.56-7.63,3.19-12.38.74-15.56-7.17a11,11,0,0,0-.63-1.46c-1.07-2-1.28-3.82-2.65-6.77a27.83,27.83,0,0,1-1.34-3.57c-.77-2.5-4-3.27-7.09-2.83-4.71.39-6.54,2.84-7.16,8.25a141.93,141.93,0,0,1-3.36,15.14,7.4,7.4,0,0,1-1.51,2.85,4.63,4.63,0,0,1-2.49,1.51c-7.34,1.7-11.87-.1-14.72-7.18l0,0a24.9,24.9,0,0,1-1.64-6.86,15,15,0,0,0-.3-2,31.38,31.38,0,0,1-.81-4.89c-.39-5.31-1.78-5.76-7.59-6.41-3-.55-4.17.19-5.48,2.73L791.87,362c-1.28,2.44-2.87,7.3-8.32,6.08-3.23-.72-7.11-1.11-9.78-3.31a6.17,6.17,0,0,1-2.18-4.53,35.69,35.69,0,0,1,.24-5.21c.6-4.75,1.08-9.51,1.8-14.24.45-3-2.9-4.12-5-5.15-1.61-.78-4.06-1.13-5.59.88l-12,13.2c-3.47,3.3-7,3.6-11.22,1.14-4.44-2.58-6.33-6.17-4.78-10.81,1.84-5.5,3.72-9.82,5.81-15.11,1.05-2.53.14-4.19-1.61-5.63-2.25-1.85-5.77-4.9-8.12-3.25-5.2,3.38-10.09,7.29-15.86,9.68a9.75,9.75,0,0,1-6.2.16c-3.75-1.41-6.76-4-7.36-8.22a10,10,0,0,1,1-5.67,72.13,72.13,0,0,1,8.94-14.21c1.1-1.36,1.56-2.34.41-4.24-1.53-2.52-4.08-7.16-7.56-6.19-2.56.59-5.55,3-9.64,4.73l-5.94,2.35c-2.65,1-6.47-.25-8.59-2.15-4.21-3.75-5.49-9.55-2.24-14.25l.64-.91a43.48,43.48,0,0,1,6.63-7.57c1.65-1.48,3.66-2.6,5.39-4,2.29-1.81,2.12-4,1.89-5.8-.39-3-2.81-6-5.9-5.58-4.6.57-9.22,1-13.84,1.46a20.12,20.12,0,0,1-4-.26,10.25,10.25,0,0,1-8.21-7.87c-1.43-6.24-.2-7.4,7.39-13,.14-.1.46-.29.76-.48l1.7-1.31c3.08-1.26,6.13-2.61,9.21-3.85,1.83-.74,2.87-2.12,2.67-4.91-.49-6.58-1.75-7.41-7.78-8.15-1.25-.15-2.27-.13-3.8-.26-4.69-.4-10.53-1.44-13.77-3.12-3.49-1.6-4.37-4.5-4.28-8.78.1-4.09,1.44-8.37,5.42-10.08s5.52-1.61,9-2.22a38.25,38.25,0,0,1,5.64-.31c3.07-.28,5.33-.35,6.64-2,3-3.78,3.19-11-1.44-12.63-2.56-.89-4.65-1.38-7.25-2.21,0,0-10.27-2.77-10.93-7.09S661.25,157.09,661.25,157.09Zm162.51,181.4c31.61.46,63.33-12.25,85.68-31.35,16.62-14.19,29.07-31.49,38.21-51.24,2.55-5.5,1.49-8-4.09-9.89-5-1.71-10.15-3.22-15.25-4.77-3.75-1.14-6.09-.12-7.81,3.81A97.88,97.88,0,0,1,909.12,265c-26.21,34.53-61,48.94-103.75,42-23.67-3.86-43.87-15.14-59.92-33.33a97.85,97.85,0,0,1-17-26.3c-3-7-4.34-7.55-11.44-5.35-4.14,1.28-8.27,2.6-12.3,4.18-6.21,2.45-6.78,3.92-4.5,10.2a24.87,24.87,0,0,0,1.1,2.79Q739.42,334.72,823.76,338.49ZM690,204.86c0,3.82-.13,7.65.05,11.47a68.49,68.49,0,0,0,1,8.41c2.23,13,2.26,13,15,10.17,1.13-.25,2.26-.53,3.37-.89,12.12-3.9,11.87-4.12,10.68-16.85-1.55-16.62-1.52-33.18,4.62-49.21,4.77-12.47,12-23.32,20.33-33.55,2.25-2.76,2.11-4.84-.42-7.29-3.34-3.23-6.39-6.76-9.63-10.11-6.39-6.62-7.58-6.6-13.84.07-.68.72-1.35,1.47-2,2.25C699.58,144.44,689.59,172.91,690,204.86Zm268.7,3c-.24-2.57-.75-5.54-.76-8.51-.1-19.32-4.84-37.53-13.15-54.84A111.78,111.78,0,0,0,924,114.18c-2-2.08-4.26-3.68-6.84-1.14-4.75,4.65-9.34,9.47-13.93,14.29-2.34,2.46-2.09,5.08-.08,7.64q1.7,2.16,3.44,4.27A96,96,0,0,1,928,187.94c1.72,12.19.28,24.23-1.12,36.27-.46,3.95,1.06,5.75,4.4,7.12,5.57,2.29,11.36,3.62,17.18,5,4.5,1.11,6.09-.75,7.17-4.42C957.87,224.21,958,216.22,958.72,207.85ZM821.55,69.05c-4.21.43-11.35.86-18.4,1.92-22.7,3.41-43,12.74-61.47,26.05-4.55,3.26-4.74,5.53-1.39,10,3.82,5.08,8.71,9.16,13.1,13.71,1.88,2,3.69,1.46,5.75,0,3.81-2.67,7.68-5.31,11.73-7.59,28.06-15.79,57.35-19.23,88-8.52,9.83,3.44,18.65,8.82,27.3,14.44,4.31,2.8,7.75,3.76,11.36-1.09,2.77-3.72,6.36-6.81,9.38-10.35,4-4.64,3.78-6.61-.91-10.22C882,78.89,854.74,69.68,821.55,69.05ZM810.69,118c0-9.93,0-10-8.13-8.27-7.22,1.5-13.84,4.59-20.37,7.91a114.18,114.18,0,0,0-29.5,21c-5,5.05-4.78,6.51,1.3,10,2.74,1.56,5.62,2.87,8.45,4.25,11.35,5.51,22.68,11.09,34.09,16.48,6.9,3.26,10.53,1.65,11.05-5C808.81,148.29,809.75,132.23,810.69,118Zm26.17,167.64c0,11.53,1.55,13.51,7,12.11a108.09,108.09,0,0,0,52.54-31c2.65-2.8,3.08-5-1.19-7.24-15.06-7.77-30.16-15.46-45.63-22.39-5.66-2.54-8.17-1.27-8.8,4.93C839.19,257.74,837.94,273.45,836.86,285.61Zm82.94-79.92a112.73,112.73,0,0,0-4.62-33.35c-1.13-4-3.1-5.31-6.83-2.74s-7.77,5.14-11.63,7.75c-10.06,6.82-20.23,13.48-30.1,20.55-5.86,4.2-5.93,7.14-.7,10.74q20.54,14.19,41.31,28c5,3.32,6.84,2.52,8.35-3.38C918.07,223.62,920.11,213.85,919.8,205.69ZM811.68,289.51c-1.14-14.19-2.3-30.25-3.78-46.28-.61-6.63-3.39-8.19-9.49-5.26q-22.24,10.67-44.24,21.86c-5.22,2.64-5.34,3.52-1.26,8,13.88,15.11,31,24.95,50.71,30.24C810.7,299.93,811.72,298.81,811.68,289.51Zm-83.8-88c1,10.39.63,21,4,31.08,2.18,6.61,3.21,7,9.43,3.42,14-8,26.87-17.9,40.21-27,5.37-3.67,5.52-6.7.11-10.45-13.67-9.49-27.16-19.28-41.47-27.8-5-3-6.09-2.4-8.2,3.19C728.59,182.88,728.81,192.3,727.88,201.54Zm109-80.91c1.08,12,2.44,27.6,3.9,43.14.63,6.69,2.15,7.6,8.7,5.56a25.22,25.22,0,0,0,3.27-1.23c13.78-6.67,27.59-13.29,41.31-20.09,5.17-2.57,5.62-4.87,1.49-9.08a110.58,110.58,0,0,0-49.22-29.26C838.32,107.38,836.86,108.84,836.86,120.63Zm-13,49.11c-19.33.62-34.8,16.57-34,35.22a34.15,34.15,0,0,0,34.32,32.78c18.75-.2,34-16.45,33.52-34.61C857.28,185.24,841,169.2,823.86,169.74Z" transform="translate(-9.42 -33.83)"/><path class="cls-2" d="M727.71,274c-3.63,2.14-5.87,3.43-8.08,4.77-1.22.74-2.28,1.37-3.21-.47-.69-1.38-.87-2.4.59-3.39,4.41-3,8.75-6.05,13.16-9,1-.69,2.17-1.7,3.56-.39a3.77,3.77,0,0,1,1.19,4.06c-.84,2.66-1.88,5.26-2.85,7.93,2.79,1.53,3.93-1,5.43-2.23s3-1.82,4.4-.4c1.7,1.69.27,3.1-1,4.18q-5.64,4.9-11.43,9.62c-1.23,1-2.68,2.47-4.36.94a4.42,4.42,0,0,1-1.25-5C725,281.6,726.1,278.54,727.71,274Z" transform="translate(-9.42 -33.83)"/><path class="cls-2" d="M802.28,322c-2,2.39-2.21,4.74-2.55,7-.29,1.88-.91,3.12-3.12,3-2.69-.17-2.23-2.06-1.92-3.61,1.07-5.36,2.24-10.71,3.47-16,.2-.88.51-2.12,1.82-2,1.88.24,3.67,1,4.48,2.77,1.1,2.4,1.83,5,2.81,7.43.21.52.79.9,1.43,1.61,1.62-2.37.68-4.78,1.08-6.94.36-1.92,1.56-3.13,3.4-2.94s1.64,1.94,1.5,3.21c-.51,4.95-1.09,9.88-1.77,14.81-.19,1.35.12,3.21-1.94,3.57a3.88,3.88,0,0,1-4.44-2.44C805.11,328.53,803.82,325.49,802.28,322Z" transform="translate(-9.42 -33.83)"/><path class="cls-2" d="M904.29,292c-.45-2.65-2.13-3.53-3.49-4.74s-3.32-3-1.5-5,3.36.14,4.54,1.18a64.56,64.56,0,0,1,9.73,10.63c.77,1.08,2.68,2.07,1.09,3.75-1.25,1.31-2.61,2.52-4.8,1.72-3.07-1.12-6.08-2.56-9.69-2.65.42,2.81,2.16,4.6,3.63,6.48,1.16,1.5,1.16,2.55-.41,3.71s-2.38.22-3.24-.9c-3-4-6.13-7.85-9-11.9-.77-1.08-2.37-2.52-1.08-3.92a4.92,4.92,0,0,1,4.68-1.11C897.76,290,900.74,291,904.29,292Z" transform="translate(-9.42 -33.83)"/><path class="cls-2" d="M765.92,317.44c-.8,1.62-1.35,3.14-3.38,2-3.44-2-6.9-4-10.34-5.95-2-1.16-.92-2.67-.18-3.82,2.89-4.46,5.92-8.82,8.91-13.21.76-1.12,1.58-2.27,3.2-1.32,3.15,1.83,6.29,3.68,9.45,5.51,1.31.76,1.35,1.66.53,2.87s-1.7,1.23-3,.61c-1.77-.87-3.64-1.54-5.48-2.29-1-.39-2-.62-2.63.44s.2,1.78.93,2.43,1.52,1.29,2.19,2,1.51,1.51.67,2.56a2.13,2.13,0,0,1-2.71.49,20.72,20.72,0,0,1-2.71-1.22c-1.62-1-2.35-.16-3.1,1.15-.91,1.57-.22,2.33,1.13,3.15C761.73,314.2,764.75,314.67,765.92,317.44Z" transform="translate(-9.42 -33.83)"/><path class="cls-2" d="M881.83,298.18c-6.81.06-11.1,4.18-11.12,10.68,0,6.17,4.46,11,10.29,11.15,6.32.12,10.81-4.19,10.85-10.43C891.9,303.18,887.46,298.13,881.83,298.18Zm-.51,17.73a6.91,6.91,0,0,1-6.88-6.55c-.14-3.44,3.34-7.27,6.75-7.43,3.66-.18,6.62,3,6.64,7.24A6.45,6.45,0,0,1,881.32,315.91Z" transform="translate(-9.42 -33.83)"/><path class="cls-2" d="M736.68,300.17c.47-.66,1-1.49,1.62-2.27,2.06-2.61,4.09-5.26,6.24-7.79,1.46-1.73,2.28-3.29.13-5.06-1.37-1.13-1.68-2.61-.45-3.91,1.57-1.66,2.75.2,3.76.94,2.83,2.05,5.45,4.38,8.2,6.54,1.46,1.15,2.48,2.52,1.34,4.24s-2.69.53-3.84-.31c-2.18-1.6-3.67-1.29-5.27,1-2,2.84-4.42,5.4-6.63,8.1-.92,1.12-1.91,1.92-3.4,1.05A2.88,2.88,0,0,1,736.68,300.17Z" transform="translate(-9.42 -33.83)"/><path class="cls-2" d="M851.09,309.27c1.26-.16,2.43,0,2.72,1.45s-.31,2.91-1.83,3c-4.5.39-3.57,3.32-3.08,6.09.54,3.1,1.12,6.19,1.69,9.28.31,1.64.17,2.73-2,3.13s-2.54-.78-2.77-2.37c-.37-2.46-.72-4.92-1.12-7.37-.58-3.47-.4-7.59-6-6.6-1.26.22-2.18-.7-2.16-2.14,0-1.2.73-1.68,1.85-1.9C842.66,311,846.87,310.14,851.09,309.27Z" transform="translate(-9.42 -33.83)"/><path class="cls-2" d="M919.87,259.46c3,1.57,6.6,3.23,9.94,5.34,3.08,1.94,4.66,1.1,6.11-1.94.89-1.84,1.65-5.4,4.48-3.76,2.46,1.42.56,4.11-.7,6.08-5.08,8-5.08,8-13.54,3.17-2.73-1.56-5.48-3.07-8.2-4.65a2.25,2.25,0,0,1-1.16-2.93C917.21,259.67,918.14,259.41,919.87,259.46Z" transform="translate(-9.42 -33.83)"/><path class="cls-2" d="M869.59,325.52c.22.59-.56,1.12-1.64,1.38s-2.39.54-3-.84a85.86,85.86,0,0,1-6-17.39,1.8,1.8,0,0,1,1.42-2.25,2.09,2.09,0,0,1,2.9,1C866.26,312.88,867.76,318.85,869.59,325.52Z" transform="translate(-9.42 -33.83)"/><path class="cls-2" d="M713,270.76a2,2,0,0,1-2.13-1.27,2,2,0,0,1,.46-2.7c4.9-4.09,10.58-6.81,16.39-9.28a1.37,1.37,0,0,1,2,.79c.38.78.69,1.65,0,2.31C724.94,265.37,718.91,268.13,713,270.76Z" transform="translate(-9.42 -33.83)"/><path class="cls-2" d="M790.61,77.87c-6.52,0-11,4.11-11.13,10.24C779.36,94.4,783.76,99,789.89,99c6.54,0,11-4.1,11.09-10.25C801.07,82.35,796.83,77.89,790.61,77.87Zm-.38,17.42a7,7,0,0,1-6.68-6.76c0-3.33,3.78-7.13,7.11-7.11s6.3,3.6,6.24,7.2A6.81,6.81,0,0,1,790.23,95.29Z" transform="translate(-9.42 -33.83)"/><path class="cls-2" d="M875.09,84c3.75,0,5.38,2.12,5.52,5.28.19,4.43,2.16,4.65,5.36,2.7,2.45-1.5,4.66-1.31,6.66.72.25,1.51-1,1.78-1.77,2.09-5.59,2.15-10.17,5.49-13.19,10.76-.81,1.41-1.75,2.5-3.57,1.57-2.14-1.09-.79-2.52-.29-3.79,1.2-3.08,2.75-6,2.5-9.52C876.08,90.54,874.7,87.4,875.09,84Z" transform="translate(-9.42 -33.83)"/><path class="cls-2" d="M821.66,75c-.11,1.86-1.29,2.31-2.76,2.25-4-.15-4.17,2.14-3.55,5.23.59,2.93.88,5.92,1.26,8.89.24,1.88-.34,3.36-2.46,3.59s-2.94-1-3.1-3c-.26-3.14-.8-6.27-.92-9.42-.12-2.87-.59-4.91-4.21-4.35-1.34.21-2.84-.33-2.9-2s1.4-2.06,2.78-2.24c4.12-.51,8.22-1.31,12.4-1C819.68,73,821.26,73.15,821.66,75Z" transform="translate(-9.42 -33.83)"/><path class="cls-2" d="M793.65,203.12c0-17.27,13.08-29.89,31.07-30,16.56-.09,29.19,13.52,29.18,31.42,0,17.6-13.15,29.58-32.39,29.55C806,234.09,793.65,220.31,793.65,203.12Zm30.67,21c9.31,0,16.67-5.73,19.36-15a19.13,19.13,0,0,0-8.86-21.87c-2.61-1.57-4.91-2.9-6-6.21-1.11-3.5-4.61-1.29-7-1.75-1.79-.35-3.6.17-3.59,2.36,0,3.12-2.07,4.14-4.29,5.43a19.41,19.41,0,0,0-9.21,22.25A19.92,19.92,0,0,0,824.32,224.08Z" transform="translate(-9.42 -33.83)"/><path class="cls-2" d="M775.69,99a4,4,0,0,1-2.18-3.55c-1-8.46-5-10.48-12.6-6.49-1.18.62-2.32,1.33-3.55,1.83-2.21.89-2.61,2.22-1.45,4.28,2.54,4.48,5.07,9,7.47,13.54,1.14,2.17,2.45,2.13,4.42,1.16,2.54-1.24,1.24-2.75.45-4s-2.09-3.11-.42-4.17,3.14-.24,4.37,1.13c2.25,2.54,4.74,2.56,7.48.72A7.56,7.56,0,0,0,775.69,99Zm-7.47-4.85a9.29,9.29,0,0,1-3.51,2.49l-.23.1c-.91.44-.91.44-1.4-.41-.63-1.1-1.25-2.21-1.91-3.29-.26-.43-.25-.69.26-.94s.89-.54,1.4-.83a1.58,1.58,0,0,0,.16-.1c.8-.36,1.51-.76,2.31-1.07a2.64,2.64,0,0,1,2.85,1A2.51,2.51,0,0,1,768.22,94.1Z" transform="translate(-9.42 -33.83)"/><path class="cls-2" d="M869.05,83.06c-1.32-4.43-10.41-7.22-14-6.23-1,.27-1.26.94-1.5,1.73l-4.86,16.21c-.27,1.48-.23,2.65,1.63,3,2,.41,3-.61,3.87-2.28.68-1.34.52-3.86,2.82-3.43s2.68,2.62,2.66,4.75a4,4,0,0,0,4,4.63c.81,0,1-.71,1-1.41.41-5.14-3-9.52,1.75-11C867.86,88.62,869.62,85,869.05,83.06Zm-4.76,1.5a2.51,2.51,0,0,1-2.11,2.21,9.27,9.27,0,0,1-4.24-.72,2.34,2.34,0,0,1-.24-.09c-1-.33-1-.33-.69-1.28.33-1.23.67-2.45,1-3.68.12-.49.31-.67.85-.48s1,.25,1.58.4a.83.83,0,0,0,.18,0c.82.31,1.6.53,2.39.87A2.64,2.64,0,0,1,864.29,84.56Z" transform="translate(-9.42 -33.83)"/><path class="cls-2" d="M843.73,93.47c-1.54-5.83-3-11.45-4.51-17-.43-1.56-.74-3.28-3.05-3.27a4.29,4.29,0,0,0-4.12,2.17A110.56,110.56,0,0,0,824.5,91c-.42,1-1.21,2.31-.07,3.2s2.45.23,3.21-.49c4.39-4.18,8.24-3.81,11.77,1.06a2.64,2.64,0,0,0,3.13.83C843.87,95.22,843.84,94.28,843.73,93.47ZM838,85.85l-5.37.1a.53.53,0,0,1-.49-.75l3.06-7a.39.39,0,0,1,.73,0l2.43,7.09A.39.39,0,0,1,838,85.85Z" transform="translate(-9.42 -33.83)"/><path class="cls-2" d="M793,312.84a6.29,6.29,0,0,0-3.65-5.36c-2.22-1.1-4.59-1.9-6.86-2.92s-3.62-.41-4.52,2c-1.56,4.19-3.53,8.24-5,12.46-.57,1.65-3.32,3.78-.07,5.38s3.23-1.85,4.53-3.22a11.7,11.7,0,0,0,.69-1.32c.64-.92,1.09-2.21,2.6-1.8a2.68,2.68,0,0,1,2.16,2.92c0,1.82,0,3.65.06,5.47.08,2.31,2,2.36,3.55,2.68,1.13.23,1.63-.57,1.4-1.43-1.37-5.08.79-8.9,4.1-12.44A6.88,6.88,0,0,0,793,312.84ZM788.29,314a2.52,2.52,0,0,1-2.11,2.21,9.29,9.29,0,0,1-4.24-.72l-.24-.09c-1-.33-1-.33-.69-1.29.33-1.22.68-2.44,1-3.67.11-.49.31-.67.84-.48s1,.25,1.58.4l.18.05c.83.3,1.6.52,2.39.87A2.64,2.64,0,0,1,788.29,314Z" transform="translate(-9.42 -33.83)"/><path class="cls-2" d="M836.87,332.22a11.18,11.18,0,0,0-.33-1.22c-2.1-5.4-4.27-10.77-6.3-16.19-.59-1.59-1.37-2.57-3.18-2.47s-3.3.59-3.9,2.46c-1.78,5.51-3.55,11-5.24,16.55-.34,1.09-.54,2.3,1,2.87,1.15.41,2,.61,3.07-.48,4-4.08,6.63-4.2,10.79-.63a3.5,3.5,0,0,0,3.19.8C836.76,333.76,837,333.18,836.87,332.22Zm-6.82-4.81-5.36.3a.53.53,0,0,1-.5-.74l3.1-7.52a.39.39,0,0,1,.73,0l2.4,7.4A.4.4,0,0,1,830.05,327.41Z" transform="translate(-9.42 -33.83)"/><path class="cls-2" d="M929.36,276.77c-5.62-2-11.16-4.25-16.9-5.73-3.46-.9-5.47,2.17-4,5.39a90,90,0,0,0,8.27,14.13c.56.79,1.21,1.51,1.85,2.29,1.61-.7,3.12-1.52,2.71-3.2-1.55-6.32,2-8.21,7.24-8.8a2.61,2.61,0,0,0,2.13-1.86C931.14,277.79,930.38,277.12,929.36,276.77Zm-7,2.53-3.47,4.63a.53.53,0,0,1-.88-.17l-3.61-7.43a.4.4,0,0,1,.55-.49l7.3,2.83A.4.4,0,0,1,922.33,279.3Z" transform="translate(-9.42 -33.83)"/></svg>